<?xml version="1.0" encoding="UTF-8"?><svg id="Layer_1" xmlns="http://www.w3.org/2000/svg" viewBox="0 0 1253.66 1156.65"><defs><style>.cls-1{fill:#221f20;stroke-width:0px;}</style></defs><path class="cls-1" d="M738.55,421.93c-1.2-.83-2.74-1.63,1.09.81-.2-.15-.4-.31-.6-.46-.16-.12-.32-.23-.49-.35Z"/><path class="cls-1" d="M581.4,965.01c.47.12.95.24,1.42.36.49.12.43.09-1.54-.39.01,0,.02,0,.04.01.03,0,.06.02.08.02Z"/><path class="cls-1" d="M1175.01,404.45c-27.3-71.55-71.32-135.38-128.11-186.72-62.1-56.14-135.83-98.06-214.7-125.75-51.46-18.07-105.34-29.69-159.76-34.6-3.51-8.31-9.68-14.62-16.2-18.93-14.42-9.55-31.11-14.23-47.16-14.23s-33.28,2.35-47.56,11.67c-6.11,3.99-15.77,12.25-19.02,22.61-67.16,7.22-133.38,25.02-193.7,55.43-69.08,34.83-130.53,86.7-173.67,151.16-21.14,31.59-37.59,66.15-48.36,102.63-10.81,36.63-16.1,74.66-18.07,112.74-4.04,78.15,6.12,156.14,13.72,233.76,7.37,75.24,13.5,152.25-.32,227.13-4.4,23.87-10.93,47.29-19.75,69.84-13.37.78-27.52,3.71-39.34,11.43-7.64,4.98-20.84,16.65-20.1,30.73.78,14.88,9.59,25.48,19.14,31.8,14.42,9.55,31.11,14.23,47.16,14.23s33.28-2.35,47.56-11.67c7.64-4.98,20.84-16.65,20.1-30.73-.78-14.88-9.59-25.48-19.14-31.8-2.11-1.4-4.27-2.68-6.47-3.87,18.19-53.19,23.9-110.07,23.36-166.44-.73-75.43-11.6-150.27-17.88-225.33-6.16-73.57-8.47-148.79,9.41-221,17.82-72,57.07-136.49,110.1-188.04,56.33-54.76,126.81-93,201.99-114.92,23.74-6.92,47.89-12.24,72.29-16.05,2.98,3.56,6.45,6.52,10.02,8.88,14.42,9.55,31.11,14.23,47.16,14.23s33.28-2.35,47.56-11.67c5.24-3.42,13.1-9.99,17.28-18.32,5.03.2,10.07.45,15.1.77,4.6.29,9.21.63,13.8,1.02,2.16.18,4.33.38,6.49.58,1.08.1,2.16.21,3.24.32.01,0,2.51.27,3.02.32,18.12,2.03,36.15,4.82,54.03,8.38,9.06,1.81,18.08,3.81,27.05,6.01,2.09.51,4.18,1.04,6.26,1.57.97.26,1.94.51,2.9.78,4.72,1.28,9.42,2.6,14.11,3.99,8.84,2.61,17.63,5.42,26.35,8.43,4.1,1.41,8.18,2.87,12.25,4.37.62.23,1.26.46,1.9.69.3.13.6.25.83.34,2.27.88,4.54,1.77,6.8,2.67,8.54,3.42,16.99,7.03,25.36,10.84,1.97.9,3.93,1.8,5.89,2.72,1.22.57,2.44,1.15,3.66,1.73.3.15.89.41,1.39.63-.21-.09-.44-.19-.74-.32-3.99-1.76,2.76,1.38,3.54,1.77,2.17,1.09,4.33,2.19,6.49,3.31,8.38,4.34,16.65,8.88,24.8,13.63.35.2.63.37.86.5.12.07.23.14.36.22,1.84,1.11,3.68,2.23,5.51,3.37,4.12,2.55,8.2,5.15,12.25,7.81,3.6,2.36,7.17,4.76,10.7,7.21,1.99,1.38,3.97,2.77,5.94,4.17.19.13.44.3.69.47.54.4,1.07.81,1.61,1.21,7.35,5.42,14.57,11.03,21.63,16.83,3.53,2.9,7.02,5.85,10.47,8.84,1.56,1.36,3.11,2.73,4.66,4.1,1.16,1.06,2.32,2.12,3.48,3.19,6.72,6.22,13.26,12.62,19.63,19.21,6.38,6.6,12.57,13.38,18.57,20.33,1.38,1.6,2.75,3.22,4.12,4.84.12.14.5.61.77.93.52.64,1.04,1.27,1.55,1.91,2.98,3.68,5.89,7.42,8.75,11.2,43.18,57.09,72.26,124.21,85.13,194.59,12.78,69.93,9.26,142.84-14.22,210.18-23.99,68.79-68.46,128.9-123.57,176.07-57.95,49.6-128.15,85.28-201.57,105.44-40.38,11.09-81.96,17.3-123.86,17.83-10.45.13-20.9-.09-31.34-.67-10.9-.61-19.9-1.43-29.74-2.74-10.36-1.38-20.67-3.14-30.9-5.28-4.82-1.01-9.63-2.1-14.41-3.28-.44-.11-.89-.22-1.33-.33-.36-.09-1.02-.25-1.42-.36-.19-.05-.38-.1-.57-.14.17.04.3.07.45.11-2.51-.69-5.02-1.38-7.52-2.1-8.55-2.48-17.02-5.25-25.38-8.31-.69-.25-1.38-.52-2.08-.78-1.83-.72-3.67-1.44-5.49-2.18-4.37-1.78-8.71-3.63-13.02-5.56-1.91-.86-3.82-1.73-5.72-2.62-.53-.25-1.05-.49-1.57-.74-4-2.15-8.13-4.08-12.13-6.22-3.7-1.98-7.36-4.02-10.99-6.12-.15-.09-.31-.18-.46-.28-.2-.1-.4-.21-.58-.33-.39-.24-.79-.48-1.18-.73-.16-.09-.33-.18-.49-.25.12.06.21.1.33.15-1.78-1.1-3.57-2.19-5.34-3.31-3.54-2.24-7.04-4.54-10.51-6.89-1.95-1.32-3.88-2.66-5.81-4.02,0,0,0,0,0,0,1.53,1.05-1.54-1.1-2.1-1.52-7.14-5.28-14.1-10.81-20.85-16.58-1.71-1.46-3.4-2.96-5.09-4.44-.71-.66-1.43-1.31-2.14-1.97-3.25-3.01-6.45-6.08-9.58-9.21-6.45-6.43-12.66-13.11-18.6-20.01-.68-.79-1.35-1.58-2.03-2.38-.13-.15-.75-.89-1.15-1.38-.4-.49-1-1.23-1.13-1.38-.65-.81-1.3-1.62-1.95-2.44-2.91-3.67-5.74-7.4-8.49-11.18-5.2-7.15-10.13-14.51-14.74-22.06-9.28-15.17-17.3-31.05-23.7-47.65-13.21-34.24-20.29-70.83-21.01-107.52-1.4-70.65,22.2-143.07,70.98-195.09,20.91-22.31,45.97-40.26,73.35-53.8,26.81-13.26,57.82-22.88,86.03-26.98,15.23-2.21,30.67-3.17,46.06-2.96,7.91.11,15.8.56,23.68,1.29.21.02.83.08,1.33.13.47.05,1.01.12,1.2.14,1.79.22,3.58.45,5.37.69,4.02.56,8.02,1.2,12.01,1.94,3.76.69,7.51,1.46,11.24,2.31,1.75.4,3.5.83,5.25,1.25.21.05.44.09.66.12.5.16.99.32,1.47.46,3.68,1.02,7.34,2.12,10.97,3.31,1.71.56,3.41,1.13,5.11,1.72.85.3,1.69.6,2.54.9.08.03.2.07.33.12,1.14.45,3.51,1.37,4.09,1.61,1.66.68,3.32,1.38,4.97,2.09,1.65.72,3.29,1.45,4.92,2.2.52.24,1.03.48,1.55.72,3.12,1.61,6.24,3.21,9.32,4.92,1.57.88,3.11,1.83,4.7,2.68-7.56-4.05-.61-.33,1.22.83,3.06,1.94,6.08,3.95,9.05,6.02.15.1.29.21.43.31.15.1.29.2.41.3.02.02.05.04.07.06.43.32.86.63,1.3.91-.26-.16-.48-.31-.7-.45,1.93,1.47,3.85,2.94,5.73,4.46,1.69,1.37,3.37,2.77,5.02,4.19.44.38.88.77,1.32,1.15.31.28.71.64.92.84,3.58,3.41,7.11,6.86,10.49,10.48,1.5,1.61,2.97,3.24,4.42,4.9.6.69,1.2,1.39,1.79,2.09.28.34.71.85.81.97,3.06,3.86,6.02,7.8,8.79,11.87,4.86,7.14,9.37,14.67,12.95,22.54,14.55,31.94,16.09,68.7-1.62,99.7-15.98,27.97-43.81,47.15-74.35,56.2-15.77,4.68-30.91,6.06-47.62,4.83-.19-.01-.91-.09-1.33-.13-.81-.1-1.62-.2-2.43-.31-2.11-.29-4.21-.62-6.3-1-2.09-.37-4.17-.79-6.25-1.24-1.04-.23-2.07-.48-3.1-.71-.22-.05-.41-.09-.58-.13-.16-.05-.33-.1-.53-.16-3.78-1.11-7.51-2.31-11.23-3.59-.78-.41-1.87-.71-2.66-1.03-2.19-.91-4.36-1.87-6.52-2.85.27.15.56.31.89.48-.44-.24-.9-.47-1.36-.7-.1-.05-.21-.09-.31-.14-.36-.16-.79-.39-1.15-.58-.02,0-.03-.02-.05-.02-1.9-.98-3.78-1.98-5.65-3.02-.56-.31-1.13-.63-1.69-.95-1.6-1.11-3.36-2.05-4.98-3.11-2.03-1.32-4.03-2.67-6.02-4.05-.26-.18-.83-.6-1.3-.94-.15-.11-.27-.21-.36-.27-3.67-2.76-7.26-5.63-10.76-8.59-.64-.54-2.85-2.48-3.35-2.9-1.22-1.12-2.44-2.24-3.64-3.38-.4-.38-.79-.78-1.19-1.17.62-.37,1.24-.74,1.84-1.13,7.64-4.98,20.84-16.65,20.1-30.73-.78-14.88-9.59-25.48-19.14-31.8-14.42-9.55-31.11-14.23-47.16-14.23s-33.28,2.35-47.56,11.67c-7.64,4.98-20.84,16.65-20.1,30.73.78,14.88,9.59,25.48,19.14,31.8,14.42,9.55,31.11,14.23,47.16,14.23,8.26,0,17.11-.67,25.72-2.68,16.23,13.67,33.94,25.55,52.92,35.12,37.4,18.85,79.01,30.26,120.92,23,33.24-5.76,65.28-23.72,85.93-50.65,22.02-28.72,26.78-66.58,16.07-100.78-12.21-38.96-40.13-72.2-72.06-96.83-30.52-23.55-65.74-41.61-102.74-52.5-64.03-18.85-133.52-17.09-196.16,6.34-62.26,23.28-114.95,68.04-144.77,127.77-34.07,68.25-38.83,150.22-17.51,223.05,21.67,74.04,70.88,137.61,132.27,183.43,69.04,51.52,150.73,83.25,236.54,91.06,86.7,7.88,175.52-9.43,254.76-44.83,68.94-30.8,132.37-76.29,180.91-134.37,47.98-57.41,79.04-126.71,88.52-201.01,9.41-73.77-.54-149.25-27.02-218.64ZM801.65,101.66c3.15.8,1.03.27,0,0h0ZM1011.61,211.8c-.81-.73-2.26-2.06,0,0h0ZM636.35,639.64c-.23-.08-.46-.15-.69-.23-3.29-1.15-.53-.26.69.23ZM636.68,639.78c.06.03.11.05.14.07-.04-.03-.1-.05-.14-.07ZM545.81,953.62c-.13-.04-.25-.09-.38-.13.07.02.2.07.38.13ZM547.6,954.3c.61.24.87.34,0,0h0Z"/><path class="cls-1" d="M496.91,930.07c1.35.69,2.61.98-1.93-1.15.05.03.11.07.16.1.6.32,1.19.7,1.77,1.05Z"/><path class="cls-1" d="M627.35,635.81c-3.33-1.82-2.92-1.48-1.92-.93.48.25.97.48,1.45.72.16.07.31.14.47.21Z"/></svg>