<?xml version="1.0" encoding="UTF-8"?><svg id="Layer_1" xmlns="http://www.w3.org/2000/svg" viewBox="0 0 1630.14 820.61"><defs><style>.cls-1{fill:#221f20;stroke-width:0px;}</style></defs><path class="cls-1" d="M414.72,634.82s-.02-.02-.03-.03c0,0,.01.02.02.02,0,0,0,0,0,0Z"/><path class="cls-1" d="M400.33,615.74c.46.45-.62-2.1-1.78-2.7,0,0,0,0,0,.01.61.37,1.36,2.05,1.77,2.69Z"/><path class="cls-1" d="M1593.66,388.27c-.78-14.88-9.59-25.48-19.14-31.8-14.42-9.55-31.11-14.23-47.16-14.23s-33.28,2.35-47.56,11.67c-2.9,1.9-6.61,4.76-10.05,8.35-33.83,5.8-67.38,13.17-100.13,23.55-48.46,15.37-94.42,37.42-137.16,64.91-43.52,27.99-82.83,61.91-124.96,91.88-34.92,24.84-70.88,48.24-108.01,69.65-61.7,35.57-126.86,65.92-195.24,86.2-52.39,15.53-106.85,25.03-161.6,24.48-3.34-4.6-7.49-8.34-11.81-11.19-14.42-9.55-31.11-14.23-47.16-14.23-14.96,0-31.82,2.18-45.77,10.57-.33-.1-.66-.18-.99-.28-5.12-1.51-10.21-3.14-15.25-4.89-2.41-.84-4.81-1.7-7.2-2.6-3.88-1.45-2.38-.87-6.21-2.43-9.45-3.85-18.72-8.16-27.75-12.92-4.41-2.33-8.77-4.76-13.06-7.31-2.06-1.22-4.09-2.49-6.14-3.74-.11-.07-.18-.11-.27-.16-.03-.02-.05-.03-.09-.06-1.11-.74-2.24-1.46-3.35-2.2-4.17-2.78-8.27-5.66-12.29-8.65-1.83-1.36-3.63-2.76-5.44-4.15-.86-.71-1.72-1.4-2.58-2.11-3.37-2.79-6.57-5.76-9.88-8.62-.7-.67-1.41-1.34-2.11-2.02-1.56-1.51-3.09-3.06-4.63-4.6-.41-.43-.82-.87-1.23-1.31-1.6-1.72-3.16-3.47-4.73-5.23.48.56,1.01,1.17,1.43,1.7-.47-.58-.95-1.14-1.44-1.71-.04-.04-.08-.08-.12-.13-2.16-2.41-1.2-1.39.09.1-.24-.28-.49-.57-.73-.86-1.63-1.95-3.23-3.92-4.8-5.91-.45-.56-.89-1.13-1.33-1.7-1.22-1.66-2.45-3.32-3.64-5-1.3-1.83-2.58-3.67-3.83-5.53-.01-.02-.02-.04-.04-.06-.08-.08-.21-.25-.4-.55-.45-.71-.91-1.41-1.36-2.12,0,0,0-.01-.01-.02-.02-.01-.04-.03-.06-.04.02,0,.03.02.05.03-2.46-3.88-4.82-7.82-7.09-11.82-1.1-1.94-2.18-3.89-3.23-5.86-.53-.98-1.04-1.97-1.56-2.96-.02-.03-.03-.05-.04-.08-.06-.12-.12-.25-.2-.41-4.05-8.26-7.83-16.62-11.15-25.21-1.71-4.42-3.31-8.88-4.8-13.38-.7-2.12-1.38-4.25-2.03-6.38-.33-1.07-.64-2.14-.96-3.21-.03-.12-.09-.29-.14-.46-.12-.42-.24-.84-.35-1.26-2.43-8.92-4.51-17.93-6.13-27.03-3.31-18.54-4.86-37.38-4.69-56.21.35-38.93,8.06-77.57,22.32-113.77,5.36-13.6,11.62-26.82,18.66-39.61,10.1-.65,20.61-2.56,30.2-6.85,15.7,10.82,32.45,20.43,48.68,30.34,18.55,11.33,37.24,22.42,56.13,33.17,38.37,21.84,77.81,42.7,118.37,60.93-.41,1.9-.59,3.86-.49,5.88.78,14.88,9.59,25.48,19.14,31.8,14.42,9.55,31.11,14.23,47.16,14.23,14.93,0,31.75-2.17,45.69-10.52,8.69,2.49,17.44,4.81,26.23,6.94,80.76,19.57,170.54,21.72,243.81-22.82,67.24-40.87,116.97-116.26,112.54-196.71-2.06-37.4-15.82-72.54-36.38-103.55-17.35-26.18-39.49-50.05-64.74-69.35,2.68-4.43,4.43-9.44,4.15-14.8-.78-14.88-9.59-25.48-19.14-31.8-14.42-9.55-31.11-14.23-47.16-14.23s-33.28,2.35-47.56,11.67c-.61.4-1.25.84-1.92,1.32-11.42-1.78-22.96-2.78-34.51-3.03-38.1-.8-76.53,1.49-114.39,5.61-64.64,7.03-128.91,20.87-189.53,44.7-49.18,19.33-95.96,45.33-136.78,79.03-21.78,17.99-41.8,38.16-59.35,60.28-2.61-.24-5.21-.38-7.79-.38-12.73,0-26.84,1.57-39.36,7.21-39.55-28.19-83.22-55.26-132.33-60.37-39.34-4.1-82.46,4.03-116.85,23.8-58.09,33.39-86.99,101.61-73.46,166.85,3.76,18.12,10.38,35.14,19.04,51.11-.02.01-.04.03-.06.04-7.64,4.98-20.84,16.65-20.1,30.73.78,14.88,9.59,25.48,19.14,31.8,14.42,9.55,31.11,14.23,47.16,14.23s33.28-2.35,47.56-11.67c7.64-4.98,20.84-16.65,20.1-30.73-.78-14.88-9.59-25.48-19.14-31.8-14.42-9.55-31.11-14.23-47.16-14.23-9.53,0-19.84.89-29.68,3.7-2.63-9.48-4.36-19.2-5.17-29.06-2.66-32.15,4.58-64.56,21.54-92.08,42.62-69.17,137.35-92.19,211.18-64.71,15.34,5.71,29.87,13.12,43.88,21.52-6.99,6.04-14.49,15.35-13.93,26.06.78,14.88,9.59,25.48,19.14,31.8,2.82,1.86,5.72,3.54,8.69,5.03-10.96,25.09-18.96,51.48-23.55,78.49-6.42,37.72-6,76.6,1.73,114.09,8.27,40.13,24.63,77.62,47.21,111.72,25.83,39.02,59.93,74.04,98.67,100.34,14.46,9.82,29.65,18.43,45.4,25.82-2.08,3.96-3.35,8.33-3.11,12.96.78,14.88,9.59,25.48,19.14,31.8,14.42,9.55,31.11,14.23,47.16,14.23s33.28-2.35,47.56-11.67c4.52-2.95,10.98-8.24,15.36-14.98,33.12,2.48,66.57.97,99.45-3.54,62.63-8.59,123.46-27.55,181.42-52.5,74.54-32.09,144.67-73.95,210.87-120.72,42.94-30.33,82.91-64.84,127.02-93.47,43.02-27.93,89.36-50.36,138.25-65.96,21.5-6.86,43.34-12.4,65.38-17.05,3.23,4.23,7.15,7.7,11.21,10.38,14.42,9.55,31.11,14.23,47.16,14.23s33.28-2.35,47.56-11.67c7.64-4.98,20.84-16.65,20.1-30.73ZM1075.17,122.87c.13.14.25.26.32.34,2.04,2.24.73.85-.32-.34ZM1060.7,109.24c.68.52,2.74,2.26,0,0h0ZM558.64,147.65c50.77-28.58,106.2-48.31,162.9-61.27,32.9-7.52,66.28-12.74,99.85-16.09,30.58-3.05,61.88-5.42,92.84-5.13,2.18,12.42,10.09,21.45,18.59,27.08,14.42,9.55,31.11,14.23,47.16,14.23s33.28-2.35,47.56-11.67c1.49-.97,3.2-2.21,4.97-3.66,4.75,2.48,9.42,5.14,13.98,8-.19-.11,2.91,1.91,3.7,2.45,1.79,1.22,3.57,2.47,5.33,3.74,1.75,1.27,3.46,2.58,5.18,3.88.96.79,1.91,1.57,2.86,2.37,1.47,1.24,2.89,2.54,4.35,3.8.61.6,1.24,1.18,1.86,1.77.62.61,5.96,5.7,2.7,2.66-2.36-2.2.37.61,2.04,2.35.47.66,1.27,1.4,1.72,1.96.66.81,1.3,1.63,1.96,2.43,2.61,3.19-.42-.75-.77-1.07,1.43,1.3,2.55,3.45,3.66,5.02.73,1.04,4.31,6.59,2.85,4.2,2,3.24,3.97,6.49,5.81,9.83,2.34,4.25,2.3,4.19,4.69,9.44,14.07,30.97,18.84,65.52,14.25,99.2-5.15,37.78-22.41,72.93-46.41,102.3-26.76,32.75-61.31,58.88-100.8,74.24-38.3,14.89-79.63,19.26-120.46,16.92-19.41-1.11-38.68-3.58-57.76-7.15.6-2.26.89-4.6.76-7.02-.78-14.88-9.59-25.48-19.14-31.8-14.42-9.55-31.11-14.23-47.16-14.23s-33.28,2.35-47.56,11.67c-2.03,1.33-4.46,3.13-6.91,5.32-26.67-10.69-52.77-22.68-78.18-35.24-40.26-19.89-79.45-41.87-117.95-64.96-8.12-4.87-16.2-9.8-24.26-14.76,6.69-6.04,13.5-14.99,12.96-25.22-.55-10.5-5.1-18.85-11.09-25.09.2-.23.4-.46.6-.69,32.27-36.18,71.14-66.1,113.31-89.84Z"/></svg>