<?xml version="1.0" encoding="UTF-8"?><svg id="Layer_1" xmlns="http://www.w3.org/2000/svg" viewBox="0 0 2292.53 791.12"><defs><style>.cls-1{fill:#221f20;stroke-width:0px;}</style></defs><path class="cls-1" d="M751.04,712.35c-2.78.99-1.57.58,0,0h0Z"/><path class="cls-1" d="M692.99,723.84c.09,0,.17,0,.27,0-.66-.02-1.08-.02-1.3-.03.35,0,.69.02,1.04.03Z"/><path class="cls-1" d="M2244.22,337.57c-.78-14.88-9.59-25.48-19.14-31.8-14.42-9.55-31.11-14.23-47.16-14.23s-33.28,2.35-47.56,11.67c-7.64,4.98-20.84,16.65-20.1,30.73.74,14.03,8.62,24.25,17.52,30.67-13.96,9.91-28.39,19.14-43.26,27.28-25.09,13.73-47.04,23.25-72.66,31.18-6.09,1.89-12.23,3.59-18.4,5.21-.13.04-.36.09-.62.15-1.47.35-2.94.69-4.41,1.02-3.44.78-6.89,1.5-10.34,2.19-5.72,1.13-11.47,2.13-17.23,3.01-2.77.42-5.55.81-8.33,1.17-.45.06-.9.11-1.13.13-2.3.23-4.59.49-6.89.7-7.43.69-14.88,1.14-22.34,1.42-2.61-11.46-10.14-19.87-18.21-25.22-5.1-3.38-10.49-6.14-16.03-8.3,1.59-30.88-3.5-62.11-16.82-91.96-19.76-44.28-52.68-79.88-91.33-108.54-42.98-31.87-92.66-56.72-144.05-71.8-76-22.31-157.54-17.45-231.28,10.83-16.21,6.21-31.93,13.35-47.21,21.27-9.77-3.66-19.99-5.47-29.96-5.47-13.71,0-29.02,1.82-42.23,8.58-3.21-1.73-6.4-3.47-9.62-5.18-96.5-51.31-199.14-96.55-308.65-109.45-8.94-1.05-17.93-1.86-26.96-2.46-3.51-8.29-9.68-14.59-16.18-18.9-14.42-9.55-31.11-14.23-47.16-14.23s-33.28,2.35-47.56,11.67c-7.11,4.64-19.04,15.08-20.05,27.87-62.69,10.31-123.76,30.94-178.22,61.5-68.26,38.31-127.86,92.61-168.34,159.47-4.46-.72-8.94-1.09-13.36-1.09-15.6,0-33.28,2.35-47.56,11.67-6.93,4.52-18.44,14.55-19.96,26.89-19.24.8-38.52,1.05-57.83.54-50.79-1.35-100.87-8.86-148.31-25.66-1.79-13.19-9.98-22.71-18.82-28.56-14.42-9.55-31.11-14.23-47.16-14.23s-33.28,2.35-47.56,11.67c-7.64,4.98-20.84,16.65-20.1,30.73.78,14.88,9.59,25.48,19.14,31.8,14.42,9.55,31.11,14.23,47.16,14.23s33.28-2.35,47.56-11.67c2.1-1.37,4.61-3.24,7.14-5.53,72.41,21.12,148.54,23.56,224.57,19.07,3.54,5.56,8.27,9.99,13.21,13.26,7.48,4.96,15.58,8.59,23.88,10.95-21.28,69.23-21.36,145.24,7.92,212.26,32.63,74.7,98.75,136.24,176.19,162.37,63.36,21.38,132.77,10.54,191.76-18.69,63.61-31.52,117.09-80.83,166.12-131.35,31.8-32.76,62.14-66.88,92.2-101.24,5.87,1.25,11.8,1.88,17.64,1.88,11.16,0,23.37-1.22,34.65-5.31,62.52,48.31,123.47,98.99,189.87,141.64,56.98,36.6,121.97,58.83,188.62,64.73,3.48,5.2,8,9.37,12.72,12.49,14.42,9.55,31.11,14.23,47.16,14.23s33.28-2.35,47.56-11.67c6.37-4.16,16.6-12.96,19.4-23.94,87.38-20.35,171.17-68.52,223.68-142.48,11.22-15.8,20.8-32.69,28.41-50.28,11.99-1.16,24.31-4.23,34.8-11.08,4.3-2.81,10.36-7.73,14.71-14.01,42.25-1.96,84.24-9.54,124.99-23.77,41.45-14.48,80.39-34.79,116.51-59.46,5.78,1.21,11.61,1.82,17.36,1.82,15.6,0,33.28-2.35,47.56-11.67,7.64-4.98,20.84-16.65,20.1-30.73ZM878.28,625.57c-14.22,13.14-22.62,20.48-37.73,32.45-12.93,10.25-26.3,19.97-40.21,28.85-3.24,2.07-6.51,4.09-9.8,6.06-1.05.63-2.1,1.24-3.16,1.85.05-.04-2.69,1.54-3.86,2.18-6.67,3.65-13.46,7.08-20.38,10.24-3.28,1.5-6.6,2.9-9.93,4.3-.51.21-1.39.54-2.17.83.44-.16.97-.34,1.62-.57-1.88.66-3.73,1.39-5.61,2.06-6.82,2.41-13.78,4.16-20.69,6.26,8.78-2.68-2.34.44-4.9.93-3.57.69-7.16,1.2-10.75,1.79-1.63.14-3.26.32-4.9.45-3.63.29-7.26.43-10.89.55-.62.02-1.19.03-1.67.03.37,0,.79.02,1.31.04-.53-.02-1.05-.03-1.58-.04-1.03,0-1.53-.03-1.04-.03-.85-.02-1.7-.04-2.55-.07-3.9-.16-7.79-.44-11.67-.84-1.52-.16-3.04-.33-4.56-.53-.35-.04-2.08-.3-3.23-.47-1.16-.21-2.9-.52-3.25-.58-1.98-.38-3.95-.79-5.91-1.23-7.63-1.71-15.12-3.92-22.52-6.45-.14-.05-.35-.12-.57-.2-.62-.23-1.24-.46-1.85-.7-1.56-.62-3.13-1.23-4.69-1.87-3.86-1.59-7.68-3.28-11.45-5.07-15.89-7.54-31.01-16.76-45.22-27.12-70.65-51.52-113.9-131.26-116.19-218.81-.86-32.96,3.89-65.63,13.19-97.03,8.27-1.74,16.39-4.67,23.62-9.4,7.12-4.65,19.08-15.11,20.06-27.93,1.09-.13,2.19-.25,3.28-.38,70.89-8.13,142.49-16.86,213.98-13.5,71.93,3.38,139.29,21.78,203.46,54.39,29.8,15.14,58.22,32.33,85.79,50.8-6.32,6.01-12.38,14.54-11.87,24.2.66,12.54,7.03,22.03,14.73,28.49-46.83,53.75-93.88,107.65-146.27,156.05ZM1086.31,399.11c-2.95-.31-5.9-.47-8.82-.47-4.31,0-8.78.19-13.29.65-31.53-21.24-64.1-40.85-98.34-57.48-66.39-32.25-136.8-50.2-210.5-53.87-82.56-4.1-164.3,6.77-246.11,16.17-2.55-3.98-5.71-7.37-9.12-10.18,14.14-26.2,31.35-50.76,50.85-72.95,31.16-35.48,70.69-67.22,110.05-89.13,22.87-12.73,47.19-23.62,68.92-31.24,13.05-4.58,26.29-8.57,39.67-12.09,5.09-1.34.83-.29,5.99-1.48,3.36-.78,6.73-1.54,10.1-2.26,7.27-1.55,14.56-2.95,21.89-4.2,2.61-.44,5.23-.87,7.86-1.27,3.45,5.05,7.88,9.11,12.49,12.17,14.42,9.55,31.11,14.23,47.16,14.23s33.28-2.35,47.56-11.67c5.19-3.39,12.96-9.87,17.16-18.1,8.29.88,16.54,2,24.74,3.37,51.87,8.65,102.23,24.71,150.74,44.79,49.73,20.59,97.75,44.81,144.93,70.67-.51,2.11-.75,4.29-.64,6.54.44,8.45,3.48,15.51,7.77,21.2-20.6,15.93-40.41,32.95-59.55,50.59-42.95,39.57-82.72,82.38-121.52,126.02ZM1722.35,606c-19.35,13.79-33.11,21.69-54.41,31.42-4.97,2.27-10.01,4.39-15.06,6.48-.31.13-1.01.41-1.51.6-.81.31-1.62.62-2.44.92-2.92,1.07-5.84,2.13-8.78,3.13-5.26,1.8-10.56,3.48-15.89,5.05-2.35.69-4.7,1.35-7.06,1.99-1.35.37-2.71.71-4.06,1.08-.21.06-.4.11-.57.16-3.62-6.96-9.12-12.36-14.89-16.18-14.42-9.55-31.11-14.23-47.16-14.23s-33.28,2.35-47.56,11.67c-6.22,4.06-16.14,12.56-19.2,23.19-1.7-.29-3.38-.59-5.06-.9-54.38-10.28-103.93-33.4-149.77-63.98-61.62-41.11-118.76-88.37-177.42-133.48-3.25-2.5-6.5-4.99-9.76-7.48,1.44-3.36,2.26-6.97,2.06-10.76-.78-14.88-9.59-25.48-19.14-31.8-.61-.41-1.24-.79-1.86-1.18,1.28-1.45,2.56-2.9,3.84-4.35,27.38-30.85,55.2-61.33,84.22-90.65,27.18-27.46,54.18-52.77,82.65-75.8,10.5,4.3,21.6,6.44,32.41,6.44,7.39,0,15.25-.54,23-2.09,23.6,13.79,47.14,27.67,70.7,41.39,97.53,56.78,196.97,113.35,305.05,147.64,21.84,6.93,44.04,12.69,66.46,17.13,3.26,9.55,10,16.7,17.16,21.44,4.98,3.3,10.23,6,15.63,8.14-20.43,50.72-58.79,94.55-101.55,125.02ZM1809.23,410.3c-4.07,2.65-9.71,7.2-13.99,13-75.44-18.89-148.9-53.25-217.41-89.55-65.04-34.46-128.15-72.34-191.76-109.34,4.45-5.43,7.87-12.13,7.48-19.49-.54-10.25-4.88-18.46-10.66-24.65,1.16-.61,2.31-1.23,3.47-1.84,7.98-4.14,16.08-8.04,24.31-11.66,3.95-1.74,7.94-3.4,11.93-5.03.57-.23.99-.41,1.32-.54.12-.04.29-.1.52-.18,2.27-.81,4.52-1.68,6.79-2.49,8.29-2.94,16.7-5.59,25.19-7.89,1.18-.32,2.36-.62,3.54-.92.4-.1,2.31-.57,3.93-.94,4.41-.99,8.84-1.89,13.29-2.7,3.93-.71,7.87-1.35,11.83-1.91,2.9-.41,6.87-.78,1.33-.22,2.66-.27,5.32-.58,7.99-.82,8.62-.76,17.22-.99,25.87-1.18.2,0,.36,0,.49-.01.37.02.9.03,1.62.06,2.19.07,4.39.13,6.58.23,4.98.23,9.96.58,14.92,1.05,4.19.4,8.38.88,12.56,1.45,1.12.15,2.24.32,3.37.48,0,0,.01,0,.02,0,2.47.41,4.93.84,7.39,1.3,47.47,8.94,89.61,27.38,131.75,52.35,73.33,43.46,134.81,112.92,136.48,200.91-10.48,1.47-21.01,4.57-30.15,10.53ZM1992.77,428.46c-1.26.3-3.19.75,0,0h0Z"/></svg>