<?xml version="1.0" encoding="UTF-8"?><svg id="Layer_1" xmlns="http://www.w3.org/2000/svg" viewBox="0 0 1848.43 927.35"><defs><style>.cls-1{fill:#221f20;stroke-width:0px;}</style></defs><path class="cls-1" d="M725.57,781.35s-.5-.23-1.77-.82c.05.02.09.04.14.07.54.25,1.09.51,1.63.76Z"/><path class="cls-1" d="M613.44,714.06c-.75-.57-1.18-.9-1.39-1.06.42.32.84.64,1.26.97.04.03.09.07.13.1Z"/><path class="cls-1" d="M782.66,90.16c-.14-.04-.27-.09-.41-.13.13.04.29.09.47.15-.02,0-.04-.01-.06-.02Z"/><path class="cls-1" d="M1213.69,572.47s.07.02.1.03c-1.34-.48-1.93-.68-2.05-.71.65.23,1.3.46,1.96.68Z"/><path class="cls-1" d="M1817.17,429.42c-.78-14.88-9.59-25.48-19.14-31.8-14.42-9.55-31.11-14.23-47.16-14.23s-33.28,2.35-47.56,11.67c-7.64,4.98-20.83,16.65-20.1,30.73.78,14.88,9.59,25.48,19.14,31.8,2.9,1.92,5.9,3.64,8.97,5.17-29.8,66.9-71.39,128.16-123.01,180.42-61.3,62.06-135.3,110.38-215.38,144.64-80.73,34.55-167.47,55.18-255,61.69-55.95,4.16-111.54,2.88-166.31-4-3.32-9.27-9.93-16.24-16.95-20.89-14.42-9.55-31.11-14.23-47.16-14.23s-33.28,2.35-47.56,11.67c-.42.28-.87.58-1.32.89-5.14-1.42-10.27-2.89-15.39-4.42-5.22-1.56-10.43-3.17-15.62-4.84-1.08-.35-2.15-.69-3.23-1.04-.13-.04-.25-.09-.41-.14-2.87-.97-5.73-1.94-8.59-2.93-21.12-7.34-41.91-15.59-62.29-24.78-2.2-.99-4.39-1.99-6.58-3.01-.32-.15-.63-.29-.95-.44.02.01-.83-.39-1.63-.76-.23-.11-.47-.22-.7-.33.21.1.39.18.56.26-.31-.15-.61-.29-.82-.39-5.16-2.5-10.3-5.01-15.4-7.61-9.66-4.92-19.22-10.06-28.65-15.42-4.71-2.68-9.4-5.41-14.04-8.2-.36-.21-.71-.43-1.07-.64-.56-.34-1.29-.79-1.74-1.07-2.55-1.6-5.11-3.19-7.65-4.81-9.4-6-18.65-12.22-27.75-18.67-4.18-2.97-8.31-6-12.44-9.04-.22-.16-.51-.38-.81-.61.31.23.64.49,1.06.81-.4-.3-.79-.61-1.19-.91-.9-.68-1.8-1.37-1.26-.97-.14-.11-.28-.22-.43-.32-2.39-1.84-4.78-3.7-7.14-5.57-8.54-6.75-16.91-13.72-25.1-20.89-4.11-3.59-8.16-7.24-12.18-10.94-.4-.37-.8-.74-1.2-1.12-.49-.46-1.29-1.21-1.7-1.6-2.19-2.1-4.39-4.2-6.56-6.33-8.07-7.89-15.92-16-23.55-24.31-3.52-3.84-7-7.72-10.42-11.64-1.82-2.08-3.62-4.17-5.41-6.28-.51-.6-1.01-1.2-1.52-1.8.64.75-2.05-2.46-2.22-2.66-7.08-8.63-13.74-17.56-20.57-26.37-12.16-15.68-21.89-30.35-30.52-46.84,2.13-1.05,4.22-2.21,6.23-3.53,6.48-4.23,16.96-13.27,19.54-24.52,11.58-2.57,23.49-5.62,34.35-10.24,9.18-3.9,18.04-9.13,26.66-14.11,17.8-10.27,34.82-21.84,51.26-34.16,66.88-50.12,122.45-113.35,180.32-173.16,28.44-29.4,57.74-58.6,89.14-85.12,5.05.92,10.13,1.38,15.15,1.38,6.96,0,14.33-.47,21.63-1.82,17.04,25.29,31.28,50.29,45.78,76.78,37.4,68.33,70.93,140.03,118.34,202.24-7.6,5.8-17.39,16.17-16.75,28.36.78,14.88,9.59,25.48,19.14,31.8,14.42,9.55,31.11,14.23,47.16,14.23,6.74,0,13.86-.44,20.93-1.69,38.62,30.44,83.33,52.19,133.55,59.25,36.15,5.08,74.83,2.75,108.34-12.74,28.68-13.26,52.34-35.6,68.35-62.72,35.58-60.25,37.52-137.24,23.11-204.03-13.85-64.19-43.79-126.07-89.76-173.27,1.73-.9,3.44-1.87,5.09-2.95,7.64-4.98,20.84-16.65,20.1-30.73-.78-14.88-9.59-25.48-19.14-31.8-14.42-9.55-31.11-14.23-47.16-14.23s-33.28,2.35-47.56,11.67c-1.46.96-3.13,2.16-4.87,3.58-18.97-7.87-38.72-13.61-58.69-18.65-49.74-12.55-101.58-19.09-152.87-15.2-62.48,4.74-120.07,25.12-172.72,56.07-6.85-1.71-13.8-2.57-20.64-2.57-7.8,0-16.12.59-24.28,2.34-21.35-17.96-44.82-33.3-70.24-45.07-3.63-1.68-7.31-3.24-11.01-4.74-2.27-12.24-10.11-21.15-18.53-26.73-14.42-9.55-31.11-14.23-47.16-14.23s-33.28,2.35-47.56,11.67c-3.79,2.47-8.95,6.6-13.1,11.84-40.71,3.64-80.63,14.95-116.35,35.12-37.39,21.11-69.63,50.77-94.28,85.88-50.32,71.65-69.9,164.17-57.19,250.42,2.39,16.18,5.91,32.1,10.48,47.67-7.82,1.77-15.46,4.63-22.31,9.1-4.49,2.93-10.91,8.18-15.28,14.87-11.91-1.16-23.75-3.02-35.44-5.59-12.48-2.74-26.24-6.64-35.85-10.05-5.83-2.07-11.61-4.29-17.32-6.67-3.36-1.4-6.7-2.85-10.02-4.35-.87-.39-1.74-.8-2.6-1.2-.46-.24-3.61-1.77-3.77-1.85-5.54-2.76-11-5.68-16.39-8.73-.99-.56-6-3.52-6.13-3.56-2.6-1.61-5.18-3.26-7.74-4.94-4.96-3.27-9.82-6.68-14.62-10.2.29.18-3.68-2.83-4.78-3.7-3.12-2.48-6.2-5.02-9.23-7.62-2.48-2.12-4.9-4.31-7.34-6.47-.22-.2-.8-.74-1.22-1.12-.76-.73-1.52-1.45-2.28-2.18-4.67-4.54-9.2-9.21-13.58-14.02-7.7-8.46-14.07-16.4-21.61-27.24-8.58-12.34-16-25.33-22.34-38.87,5.28-1.73,10.4-4.04,15.13-7.13,7.64-4.98,20.84-16.65,20.1-30.73-.78-14.88-9.59-25.48-19.14-31.8-14.42-9.55-31.11-14.23-47.16-14.23s-33.28,2.35-47.56,11.67c-7.64,4.98-20.84,16.65-20.1,30.73.78,14.88,9.59,25.48,19.14,31.8,14.42,9.55,31.11,14.23,47.16,14.23.73,0,1.47-.01,2.21-.02,47.39,84.32,133.97,145.94,225.69,173,11.31,3.34,22.81,6.11,34.41,8.29,3.4,8.94,9.85,15.68,16.7,20.21,14.42,9.55,31.11,14.23,47.16,14.23,4.53,0,9.25-.21,14-.72,23.37,38.15,53.8,73.48,85.2,105.09,66.94,67.4,147.26,120.51,234.36,158.13,21.66,9.36,43.75,17.7,66.16,25.08-1.44,3.35-2.25,6.96-2.05,10.74.78,14.88,9.59,25.48,19.14,31.8,14.42,9.55,31.11,14.23,47.16,14.23s33.28-2.35,47.56-11.67c4.37-2.85,10.56-7.9,14.92-14.33,24.11,3.9,48.39,6.78,72.72,8.62,89.63,6.79,180.62-.65,267.91-22.16,85.54-21.08,167.91-56.17,240.9-105.7,73.18-49.66,136.51-113.18,183.3-188.41,18.55-29.83,34.38-61.27,47.51-93.83,12.39-1.05,25.23-4.1,36.09-11.2,7.64-4.98,20.84-16.65,20.1-30.73ZM1094.75,94.57c49.11-6.13,99.21-1.88,147.29,9.03,12.25,2.78,24.41,5.99,36.46,9.52-.96,2.8-1.46,5.75-1.3,8.82.78,14.88,9.59,25.48,19.14,31.8,14.42,9.55,31.11,14.23,47.16,14.23,6.47,0,13.3-.42,20.1-1.55.88.98,1.77,1.96,2.64,2.95.71.81,5.47,6.59,1.92,2.2,1.56,1.94,3.14,3.86,4.67,5.83,5.54,7.11,10.75,14.49,15.64,22.07,2.3,3.58,4.54,7.21,6.69,10.88.25.46,2.12,3.78,2.39,4.26,1.35,2.45,2.67,4.91,3.95,7.39,33.4,64.35,47.84,140.29,35.82,212.53-10.51,63.18-46.92,122.51-110.84,141.33-17.73,5.22-33.93,6.91-52.44,6.52-9.57-.2-19.15-.98-28.62-2.37.36.03-4.07-.7-4.88-.85-2.27-.42-4.53-.87-6.79-1.36-4.68-1.01-9.33-2.17-13.94-3.48-2.02-.57-4.02-1.21-6.03-1.81.13.05.24.09.39.14-.16-.06-.32-.11-.49-.17-.1-.03-.2-.06-.3-.09-.62-.19-1.89-.66-1.66-.59-.11-.04-.23-.08-.34-.12-4.57-1.69-9.12-3.42-13.59-5.36-1.77-.77-3.52-1.59-5.29-2.38,6.79,3.03-.97-.53-2.32-1.22-3.84-1.97-7.6-4.08-11.34-6.23-.2-.11-.37-.21-.54-.31-.15-.1-.32-.21-.52-.34-1.81-1.17-3.62-2.33-5.41-3.52-1.79-1.2-3.56-2.42-5.32-3.67-.41-.29-1.85-1.35-3.05-2.22-.16-.12-.34-.27-.54-.42,1.89-.96,3.75-2.02,5.54-3.2,7.64-4.98,20.83-16.65,20.1-30.73-.78-14.88-9.59-25.48-19.14-31.8-14.42-9.55-31.11-14.23-47.16-14.23-9.17,0-19.07.83-28.56,3.39-4.55-6.58-8.98-13.24-13.29-19.97-21.19-33.08-38.35-65.2-57.63-101.41-28.15-52.85-55.93-107.17-91.3-155.8.57-.34,1.14-.68,1.7-1.04,7.64-4.98,20.84-16.65,20.1-30.73-.3-5.78-1.83-10.9-4.12-15.38,8.24-4.81,16.64-9.39,25.23-13.67,37.55-18.71,78.14-31.65,119.83-36.85ZM444.09,283.08c27.11-81.42,85.56-151.74,166.43-183.5,14.15-5.56,28.8-9.95,43.72-13.16,3.57,5.81,8.44,10.41,13.53,13.78,14.42,9.55,31.11,14.23,47.16,14.23s33.28-2.35,47.56-11.67c4.34-2.83,10.47-7.82,14.83-14.19,1.29.37,2.57.74,3.86,1.12.35.1.7.22,1.05.33-1.12-.35-.45-.15.41.13.46.15.91.29,1.37.43-.55-.17-.97-.31-1.31-.41.44.14.91.3,1.22.41,2.53.92,5.07,1.82,7.58,2.8,3.84,1.5,7.62,3.14,11.39,4.83.2.09.36.16.52.23.3.16.69.36,1.19.62,2.14,1.1,4.28,2.19,6.39,3.33,1.69.91,3.36,1.85,5.02,2.8.77.44,1.53.9,2.3,1.35,3.42,2.21,6.84,4.41,10.17,6.75,1.61,1.13,3.19,2.33,4.8,3.46.48.37.96.74,1.44,1.12,2.7,2.13,5.35,4.32,7.96,6.55-.93.53-1.84,1.09-2.74,1.68-7.64,4.98-20.84,16.65-20.1,30.73.4,7.57,2.88,14.03,6.48,19.39-55.73,47.62-104.65,102.77-155.74,155.2-28.74,29.49-58.25,58.36-90.18,84.41-15.51,12.65-31.57,24.59-48.4,35.43-16.82,10.84-34.69,22.13-53.74,28.51-1.88.63-3.78,1.23-5.67,1.82-.63-.46-1.26-.9-1.89-1.32-11.1-7.35-23.53-11.8-35.99-13.47-13.42-60.56-10.18-124.97,9.38-183.72ZM664.44,748.63c.26.16.22.13,0,0h0ZM804.63,812.73c.93.31,2.29.77,0,0h0Z"/></svg>